# xmcd CD database file
#
# Track frame offsets:
#	150
#	13750
#	27422
#	40802
#	52667
#	66625
#	80575
#	94487
#	107117
#	118667
#	131004
#	142505
#	155495
#	167705
#	181317
#	194092
#	207562
#	220972
#	232830
#	245470
#	261027
#	275512
#
# Disc length: 3856 seconds
#
# Revision: 0
# Processed by: cddbd v1.5.1PL0 Copyright (c) Steve Scherf et al.
# Submitted via: CDex 1.51
#
DISCID=430f0e16
DTITLE=Lucille Bogan - Reckless Woman (1927-1935)
DYEAR=2000
DGENRE=Blues
TTITLE0=T&O Blues
TTITLE1=Baking Powder Blues
TTITLE2=Groceries On The Shelf
TTITLE3=Lonesome Midnight Blues
TTITLE4=Pig Iron Sally
TTITLE5=I Hate That Train Called The M and O
TTITLE6=Sweet Man, Sweet Man
TTITLE7=Reckless Woman
TTITLE8=Tired As I Can Be
TTITLE9=Every Morning Blues
TTITLE10=Big Mama
TTITLE11=Shave 'Em Dry
TTITLE12=Barbecue Bess
TTITLE13=B.D. Woman's Blues
TTITLE14=Jump Steady Daddy
TTITLE15=Skin Game Blues
TTITLE16=45 Pistol Blues
TTITLE17=Nice And Kind Blues
TTITLE18=Jim Tampa Blues
TTITLE19=Coffee Grindin' Blues
TTITLE20=They Ain't Walking No More
TTITLE21=Alley Boogie
EXTD=YEAR: 2000
EXTT0=
EXTT1=
EXTT2=
EXTT3=
EXTT4=
EXTT5=
EXTT6=
EXTT7=
EXTT8=
EXTT9=
EXTT10=
EXTT11=
EXTT12=
EXTT13=
EXTT14=
EXTT15=
EXTT16=
EXTT17=
EXTT18=
EXTT19=
EXTT20=
EXTT21=
PLAYORDER=
